<svg id="svg" version="1.1" xmlns="http://www.w3.org/2000/svg" xmlns:xlink="http://www.w3.org/1999/xlink" width="400" height="400" viewBox="0, 0, 400,400"><g id="svgg"><path id="path0" d="M190.820 93.218 C 159.680 108.194,114.887 130.758,114.290 131.770 C 113.703 132.764,113.142 132.424,132.504 142.797 L 149.579 151.944 153.093 149.804 C 181.321 132.606,210.747 131.090,239.245 145.365 C 244.574 148.034,250.391 151.462,250.391 151.933 C 250.391 152.107,254.431 150.074,259.369 147.414 C 264.307 144.754,268.526 142.578,268.744 142.578 C 269.002 142.578,269.141 146.127,269.141 152.760 L 269.141 162.941 267.955 163.939 C 265.040 166.391,264.863 170.004,267.538 172.425 C 268.601 173.387,268.582 173.797,267.176 180.198 C 266.525 183.161,266.097 185.753,266.224 185.959 C 267.073 187.332,271.017 188.124,273.962 187.513 C 277.446 186.789,277.460 186.732,275.887 179.554 L 274.531 173.367 275.499 172.328 C 278.130 169.504,277.951 166.410,275.014 163.939 L 273.828 162.941 273.831 151.295 L 273.834 139.648 279.713 136.523 C 286.339 133.002,287.112 132.396,286.284 131.381 C 285.690 130.651,227.122 101.478,205.935 91.359 C 199.899 88.475,200.951 88.346,190.820 93.218 M191.797 142.776 C 181.572 144.177,170.483 147.975,160.840 153.379 L 157.031 155.513 157.031 166.819 L 157.031 178.125 158.106 178.125 C 158.697 178.125,160.410 177.864,161.914 177.546 C 174.542 174.871,193.543 180.130,199.278 187.887 L 200.139 189.052 202.523 186.764 C 210.991 178.633,225.458 175.202,239.749 177.937 C 241.412 178.255,242.905 178.516,243.066 178.516 C 243.228 178.516,243.359 173.345,243.359 167.026 L 243.359 155.537 240.332 153.795 C 224.728 144.817,206.728 140.730,191.797 142.776 M149.915 191.695 C 151.051 191.774,152.808 191.773,153.822 191.693 C 154.835 191.613,153.906 191.548,151.758 191.549 C 149.609 191.550,148.780 191.616,149.915 191.695 M247.168 191.692 C 248.081 191.775,249.575 191.775,250.488 191.692 C 251.401 191.610,250.654 191.543,248.828 191.543 C 247.002 191.543,246.255 191.610,247.168 191.692 M263.379 192.457 C 263.755 192.555,264.370 192.555,264.746 192.457 C 265.122 192.359,264.814 192.278,264.063 192.278 C 263.311 192.278,263.003 192.359,263.379 192.457 M132.617 221.505 C 126.632 221.784,119.380 222.433,117.077 222.896 C 115.167 223.280,110.992 229.915,112.016 230.940 C 112.782 231.706,112.805 231.706,116.647 230.927 C 148.096 224.550,178.672 229.866,195.549 244.645 C 199.735 248.310,200.846 248.315,204.755 244.688 C 220.338 230.227,251.373 224.802,283.538 230.916 C 289.533 232.055,289.832 231.663,286.655 226.822 C 285.363 224.853,284.253 223.188,284.188 223.122 C 283.276 222.194,265.989 220.972,256.932 221.195 C 234.992 221.736,218.676 227.103,205.719 238.044 C 200.521 242.434,200.218 242.450,195.459 238.605 C 178.467 224.875,161.186 220.173,132.617 221.505 M102.734 263.867 C 102.734 271.910,102.590 272.486,101.009 270.739 C 96.679 265.955,87.080 268.560,83.561 275.475 C 76.723 288.908,89.482 303.824,100.658 295.462 C 102.133 294.357,103.203 294.250,103.105 295.215 C 102.899 297.236,102.944 297.266,106.250 297.266 L 109.375 297.266 109.375 276.758 L 109.375 256.250 106.055 256.250 L 102.734 256.250 102.734 263.867 M55.078 277.344 L 55.078 297.266 66.992 297.266 L 78.906 297.266 78.906 294.531 L 78.906 291.797 70.410 291.797 L 61.914 291.797 61.914 285.938 L 61.914 280.079 68.848 280.079 L 75.781 280.078 75.781 277.344 L 75.781 274.609 68.848 274.609 L 61.914 274.609 61.914 268.750 L 61.914 262.891 70.215 262.891 L 78.516 262.891 78.516 260.156 L 78.516 257.422 66.797 257.422 L 55.078 257.422 55.078 277.344 M244.531 265.039 L 244.531 268.750 242.188 268.750 L 239.844 268.750 239.844 271.289 L 239.844 273.828 242.161 273.828 L 244.478 273.828 244.603 282.715 C 244.746 292.969,245.117 294.396,248.163 296.412 C 250.043 297.656,254.730 298.074,257.646 297.258 L 259.375 296.773 259.375 294.449 L 259.375 292.125 258.105 292.449 C 251.947 294.021,251.172 292.876,251.172 282.205 L 251.172 273.828 255.273 273.828 L 259.375 273.828 259.375 271.289 L 259.375 268.750 255.273 268.750 L 251.172 268.750 251.172 265.039 L 251.172 261.328 247.852 261.328 L 244.531 261.328 244.531 265.039 M184.002 268.568 C 182.831 268.897,181.117 269.543,180.194 270.003 L 178.516 270.842 178.516 273.068 L 178.516 275.294 181.152 274.307 C 187.978 271.754,193.299 273.083,193.660 277.430 L 193.833 279.520 189.788 279.979 C 180.010 281.088,176.292 283.889,176.631 289.891 C 177.062 297.518,187.520 300.727,192.829 294.861 C 193.717 293.880,194.322 293.957,194.851 295.118 C 195.831 297.268,199.992 298.383,202.904 297.275 C 204.516 296.662,204.413 293.359,202.782 293.359 C 200.974 293.359,200.873 292.902,200.706 283.984 C 200.529 274.451,200.215 273.174,197.457 270.752 C 194.537 268.188,188.723 267.245,184.002 268.568 M221.781 268.729 C 220.762 269.127,219.048 270.086,217.971 270.859 C 215.490 272.642,215.377 272.628,215.059 270.508 L 214.796 268.750 211.695 268.750 L 208.594 268.750 208.594 283.008 L 208.594 297.266 211.914 297.266 L 215.234 297.266 215.234 286.934 L 215.234 276.602 216.504 275.652 C 220.972 272.308,225.929 272.347,227.619 275.740 C 228.227 276.962,228.337 278.480,228.447 287.207 L 228.574 297.266 231.865 297.266 L 235.156 297.266 235.156 287.623 C 235.156 275.546,234.892 274.303,231.635 271.033 C 228.524 267.911,225.614 267.231,221.781 268.729 M270.313 268.505 C 269.346 268.785,267.720 269.384,266.699 269.836 L 264.844 270.659 264.844 272.996 L 264.844 275.333 267.285 274.374 C 274.243 271.641,279.391 272.964,279.943 277.627 L 280.173 279.572 276.828 279.844 C 266.498 280.682,261.175 285.033,262.853 291.266 C 264.548 297.561,271.631 299.803,277.505 295.904 C 279.867 294.336,280.228 294.264,280.935 295.226 C 282.628 297.529,285.848 298.328,289.004 297.227 C 290.942 296.552,290.893 293.359,288.945 293.359 C 286.780 293.359,286.719 293.127,286.719 284.902 C 286.719 273.981,285.982 271.739,281.611 269.350 C 279.127 267.993,273.528 267.574,270.313 268.505 M301.674 268.512 C 296.359 270.248,293.102 274.209,292.155 280.090 C 290.307 291.565,301.284 300.254,310.186 294.363 C 312.505 292.828,312.595 292.927,312.441 296.847 C 312.173 303.707,305.824 306.594,297.588 303.602 C 295.004 302.663,294.922 302.739,294.922 306.033 L 294.922 308.096 297.143 308.795 C 305.779 311.511,314.617 308.619,317.859 302.016 L 318.945 299.805 319.060 284.277 L 319.174 268.750 316.465 268.750 C 313.575 268.750,313.281 268.951,313.281 270.930 C 313.281 272.034,312.486 272.177,311.866 271.185 C 310.468 268.945,304.856 267.474,301.674 268.512 M333.931 268.581 C 324.924 271.354,320.953 283.477,326.367 291.670 C 329.833 296.914,337.177 298.935,345.508 296.937 L 348.242 296.281 348.357 293.891 L 348.472 291.502 345.818 292.258 C 337.023 294.764,330.705 291.638,330.478 284.668 C 330.473 284.507,334.795 284.375,340.083 284.375 L 349.698 284.375 349.544 280.371 C 349.191 271.210,342.297 266.005,333.931 268.581 M115.234 279.239 C 115.234 292.231,115.796 294.184,120.229 296.597 C 123.756 298.516,130.481 297.546,132.763 294.788 C 133.718 293.634,134.375 294.006,134.375 295.703 L 134.375 297.266 137.695 297.266 L 141.016 297.266 141.016 283.008 L 141.016 268.750 137.695 268.750 L 134.375 268.750 134.375 279.466 L 134.375 290.181 133.301 290.929 C 130.895 292.605,126.433 293.137,124.252 292.009 C 122.074 290.883,121.875 289.774,121.875 278.750 L 121.875 268.750 118.555 268.750 L 115.234 268.750 115.234 279.239 M145.313 268.899 C 145.313 269.216,152.853 288.586,155.557 295.215 L 156.394 297.266 159.415 297.266 L 162.435 297.266 163.121 295.410 C 163.499 294.390,165.907 288.281,168.472 281.836 C 171.038 275.391,173.225 269.810,173.333 269.434 C 173.508 268.824,173.195 268.750,170.433 268.750 L 167.337 268.750 166.304 271.777 C 161.901 284.686,159.982 289.844,159.583 289.844 C 159.327 289.844,158.576 288.218,157.914 286.230 C 157.251 284.243,155.619 279.497,154.287 275.684 L 151.865 268.750 148.589 268.750 C 146.787 268.750,145.313 268.817,145.313 268.899 M340.111 273.501 C 340.716 273.750,341.339 273.927,341.495 273.894 C 342.006 273.786,343.359 277.267,343.359 278.690 L 343.359 280.078 337.141 280.078 L 330.922 280.078 331.299 278.714 C 332.603 273.992,336.177 271.878,340.111 273.501 M100.720 274.885 L 102.539 276.009 102.645 283.306 L 102.752 290.603 101.111 291.688 C 98.918 293.140,93.727 293.292,91.923 291.958 C 87.046 288.350,87.692 276.297,92.884 274.056 C 95.060 273.117,98.437 273.474,100.720 274.885 M311.066 274.727 L 312.500 275.821 312.497 282.539 L 312.495 289.258 311.062 290.234 C 309.103 291.569,303.820 291.672,302.081 290.409 C 297.794 287.298,297.959 277.210,302.344 274.284 C 304.387 272.921,309.005 273.155,311.066 274.727 M193.666 287.200 L 193.555 291.198 191.830 292.148 C 188.116 294.194,184.008 293.151,183.419 290.012 C 182.602 285.656,185.244 283.808,193.080 283.253 C 193.714 283.208,193.767 283.567,193.666 287.200 M280.078 286.879 C 280.078 291.223,279.381 292.181,275.660 292.953 C 271.736 293.768,269.543 292.303,269.543 288.867 C 269.543 285.649,271.213 284.213,275.611 283.649 C 280.550 283.016,280.078 282.675,280.078 286.879 " stroke="none" fill="#042344" fill-rule="evenodd"></path><path id="path1" d="M138.588 192.146 L 134.402 192.383 128.610 202.148 C 121.036 214.920,120.093 216.588,120.643 216.248 C 121.407 215.776,129.170 214.537,134.486 214.038 C 159.688 211.676,181.090 217.933,197.783 232.543 L 200.449 234.877 202.471 232.913 C 218.621 217.222,246.840 210.151,274.021 214.983 C 277.028 215.517,279.543 215.900,279.610 215.833 C 279.696 215.746,267.023 193.868,266.184 192.653 C 265.588 191.792,241.153 191.817,236.470 192.683 C 223.005 195.175,210.016 203.256,202.578 213.770 C 200.372 216.888,200.143 216.940,198.696 214.650 C 196.970 211.918,190.478 205.313,186.822 202.569 C 174.830 193.569,162.084 190.815,138.588 192.146 " stroke="none" fill="#4c2c84" fill-rule="evenodd"></path><path id="path2" d="M210.938 93.553 C 210.938 93.814,215.673 96.176,215.847 96.002 C 215.926 95.923,214.854 95.298,213.464 94.613 C 212.074 93.927,210.938 93.450,210.938 93.553 M176.563 99.805 C 175.166 100.536,174.199 101.134,174.414 101.134 C 174.629 101.134,175.947 100.536,177.344 99.805 C 178.740 99.074,179.707 98.475,179.492 98.475 C 179.277 98.475,177.959 99.074,176.563 99.805 M233.203 104.479 C 233.203 104.586,234.082 105.120,235.156 105.664 C 236.230 106.208,237.109 106.566,237.109 106.458 C 237.109 106.351,236.230 105.818,235.156 105.273 C 234.082 104.729,233.203 104.372,233.203 104.479 M152.344 111.719 C 151.592 112.130,151.117 112.475,151.289 112.484 C 151.703 112.505,153.906 111.360,153.906 111.123 C 153.906 110.867,153.883 110.876,152.344 111.719 M140.137 117.799 C 139.116 118.330,138.281 118.852,138.281 118.959 C 138.281 119.066,139.160 118.708,140.234 118.164 C 141.309 117.620,142.188 117.089,142.188 116.986 C 142.188 116.727,142.223 116.713,140.137 117.799 M132.715 121.511 C 131.909 121.936,131.250 122.372,131.250 122.478 C 131.250 122.585,131.953 122.313,132.813 121.875 C 133.672 121.437,134.375 120.994,134.375 120.890 C 134.375 120.635,134.372 120.636,132.715 121.511 M272.298 123.975 C 272.698 124.337,275.781 125.777,275.781 125.602 C 275.781 125.380,272.833 123.828,272.411 123.828 C 272.260 123.828,272.209 123.894,272.298 123.975 M115.234 133.769 C 115.234 133.876,115.762 134.237,116.406 134.570 C 117.051 134.904,117.578 135.088,117.578 134.981 C 117.578 134.874,117.051 134.513,116.406 134.180 C 115.762 133.846,115.234 133.662,115.234 133.769 M280.371 136.161 C 278.911 136.953,279.000 137.283,280.469 136.523 C 281.113 136.190,281.641 135.834,281.641 135.732 C 281.641 135.481,281.599 135.495,280.371 136.161 M273.945 142.578 C 273.945 143.760,274.018 144.243,274.108 143.652 C 274.197 143.062,274.197 142.095,274.108 141.504 C 274.018 140.913,273.945 141.396,273.945 142.578 M273.988 156.055 C 273.988 159.707,274.046 161.254,274.118 159.492 C 274.191 157.730,274.191 154.742,274.119 152.851 C 274.047 150.961,273.988 152.402,273.988 156.055 M234.375 150.586 C 234.912 150.893,235.527 151.144,235.742 151.144 C 235.957 151.144,235.693 150.893,235.156 150.586 C 234.619 150.279,234.004 150.028,233.789 150.028 C 233.574 150.028,233.838 150.279,234.375 150.586 M146.484 150.566 C 146.484 150.673,147.012 151.034,147.656 151.367 C 148.301 151.700,148.828 151.885,148.828 151.778 C 148.828 151.670,148.301 151.310,147.656 150.977 C 147.012 150.643,146.484 150.458,146.484 150.566 M265.625 170.204 C 265.625 170.431,265.987 171.032,266.429 171.539 L 267.234 172.461 266.548 171.289 C 265.645 169.747,265.625 169.724,265.625 170.204 M188.672 180.644 C 188.672 180.751,189.199 181.112,189.844 181.445 C 190.488 181.779,191.016 181.963,191.016 181.856 C 191.016 181.749,190.488 181.388,189.844 181.055 C 189.199 180.721,188.672 180.537,188.672 180.644 M192.578 182.832 C 193.933 183.751,194.705 184.019,193.750 183.238 C 193.213 182.799,192.598 182.438,192.383 182.437 C 192.168 182.435,192.256 182.613,192.578 182.832 M257.719 220.979 C 258.205 221.073,258.908 221.069,259.282 220.972 C 259.655 220.874,259.258 220.797,258.398 220.802 C 257.539 220.806,257.233 220.886,257.719 220.979 M135.059 221.376 C 135.757 221.463,136.899 221.463,137.598 221.376 C 138.296 221.290,137.725 221.219,136.328 221.219 C 134.932 221.219,134.360 221.290,135.059 221.376 M179.329 228.273 C 179.728 228.636,183.594 230.462,183.594 230.287 C 183.594 230.066,179.863 228.125,179.440 228.125 C 179.290 228.125,179.240 228.192,179.329 228.273 M137.988 228.785 C 138.364 228.883,138.979 228.883,139.355 228.785 C 139.731 228.687,139.424 228.606,138.672 228.606 C 137.920 228.606,137.612 228.687,137.988 228.785 M217.090 236.549 C 216.069 237.080,215.234 237.602,215.234 237.709 C 215.234 237.884,219.101 236.057,219.499 235.695 C 219.982 235.254,218.711 235.705,217.090 236.549 M207.182 242.645 C 205.494 243.915,205.264 244.143,205.684 244.125 C 206.082 244.108,208.911 241.797,208.534 241.797 C 208.410 241.797,207.801 242.179,207.182 242.645 M202.774 246.323 C 202.044 246.841,201.639 247.266,201.874 247.266 C 202.108 247.266,202.793 246.832,203.396 246.301 C 204.777 245.087,204.500 245.096,202.774 246.323 M63.188 263.167 C 63.674 263.260,64.377 263.257,64.751 263.159 C 65.124 263.061,64.727 262.985,63.867 262.989 C 63.008 262.993,62.702 263.073,63.188 263.167 M68.457 263.181 C 70.122 263.254,72.847 263.254,74.512 263.181 C 76.177 263.108,74.814 263.048,71.484 263.048 C 68.154 263.048,66.792 263.108,68.457 263.181 M119.043 268.635 C 119.526 268.728,120.317 268.728,120.801 268.635 C 121.284 268.542,120.889 268.466,119.922 268.466 C 118.955 268.466,118.560 268.542,119.043 268.635 M137.994 268.640 C 138.587 268.729,139.466 268.727,139.947 268.634 C 140.427 268.542,139.941 268.468,138.867 268.471 C 137.793 268.474,137.400 268.550,137.994 268.640 M148.541 268.640 C 149.134 268.729,150.013 268.727,150.494 268.634 C 150.974 268.542,150.488 268.468,149.414 268.471 C 148.340 268.474,147.947 268.550,148.541 268.640 M168.462 268.640 C 169.056 268.729,169.935 268.727,170.416 268.634 C 170.896 268.542,170.410 268.468,169.336 268.471 C 168.262 268.474,167.869 268.550,168.462 268.640 M209.766 268.600 C 212.059 268.892,215.147 268.923,214.980 268.652 C 214.880 268.491,213.446 268.386,211.793 268.418 C 210.141 268.450,209.229 268.532,209.766 268.600 M240.925 268.642 C 241.627 268.729,242.682 268.728,243.269 268.638 C 243.856 268.549,243.281 268.478,241.992 268.480 C 240.703 268.483,240.223 268.556,240.925 268.642 M254.600 268.646 C 255.519 268.728,256.925 268.727,257.725 268.643 C 258.525 268.559,257.773 268.492,256.055 268.493 C 254.336 268.495,253.681 268.563,254.600 268.646 M315.723 268.639 C 316.313 268.729,317.280 268.729,317.871 268.639 C 318.462 268.550,317.979 268.476,316.797 268.476 C 315.615 268.476,315.132 268.550,315.723 268.639 M264.570 273.047 C 264.570 274.229,264.643 274.712,264.733 274.121 C 264.822 273.530,264.822 272.563,264.733 271.973 C 264.643 271.382,264.570 271.865,264.570 273.047 M279.824 287.500 C 279.824 289.326,279.891 290.073,279.974 289.160 C 280.056 288.247,280.056 286.753,279.974 285.840 C 279.891 284.927,279.824 285.674,279.824 287.500 M184.449 285.562 C 183.978 286.000,183.594 286.557,183.594 286.799 C 183.594 287.041,183.638 287.166,183.691 287.077 C 183.745 286.987,184.215 286.431,184.736 285.840 C 185.846 284.581,185.677 284.418,184.449 285.562 M76.660 291.676 C 77.036 291.774,77.651 291.774,78.027 291.676 C 78.403 291.577,78.096 291.497,77.344 291.497 C 76.592 291.497,76.284 291.577,76.660 291.676 M309.375 294.957 C 308.726 295.487,308.661 295.620,309.180 295.352 C 310.454 294.693,311.160 294.152,310.742 294.155 C 310.527 294.157,309.912 294.517,309.375 294.957 " stroke="none" fill="#4e5e6c" fill-rule="evenodd"></path><path id="path3" d="M243.493 159.570 C 243.495 161.289,243.563 161.944,243.646 161.025 C 243.728 160.106,243.727 158.700,243.643 157.900 C 243.559 157.100,243.492 157.852,243.493 159.570 M243.458 165.430 C 243.462 166.289,243.542 166.595,243.636 166.109 C 243.729 165.623,243.726 164.920,243.628 164.546 C 243.530 164.173,243.454 164.570,243.458 165.430 M243.491 176.172 C 243.491 177.783,243.560 178.442,243.644 177.637 C 243.728 176.831,243.728 175.513,243.644 174.707 C 243.560 173.901,243.491 174.561,243.491 176.172 M114.950 273.438 C 114.950 274.404,115.026 274.800,115.119 274.316 C 115.213 273.833,115.213 273.042,115.119 272.559 C 115.026 272.075,114.950 272.471,114.950 273.438 M114.942 279.492 C 114.947 280.352,115.027 280.657,115.120 280.171 C 115.213 279.685,115.210 278.982,115.112 278.609 C 115.014 278.235,114.938 278.633,114.942 279.492 M114.955 285.352 C 114.958 286.426,115.034 286.819,115.124 286.225 C 115.214 285.631,115.211 284.752,115.119 284.272 C 115.026 283.792,114.953 284.277,114.955 285.352 M310.352 290.261 C 309.707 290.674,309.380 291.012,309.625 291.014 C 309.869 291.015,310.485 290.670,310.992 290.247 C 312.153 289.280,311.874 289.286,310.352 290.261 M203.997 295.703 C 203.997 296.455,204.077 296.763,204.176 296.387 C 204.274 296.011,204.274 295.396,204.176 295.020 C 204.077 294.644,203.997 294.951,203.997 295.703 M252.832 297.926 C 253.208 298.024,253.823 298.024,254.199 297.926 C 254.575 297.827,254.268 297.747,253.516 297.747 C 252.764 297.747,252.456 297.827,252.832 297.926 M285.254 297.926 C 285.630 298.024,286.245 298.024,286.621 297.926 C 286.997 297.827,286.689 297.747,285.938 297.747 C 285.186 297.747,284.878 297.827,285.254 297.926 " stroke="none" fill="#45515f" fill-rule="evenodd"></path><path id="path4" d="M193.750 91.211 C 193.213 91.518,192.949 91.769,193.164 91.769 C 193.379 91.769,193.994 91.518,194.531 91.211 C 195.068 90.904,195.332 90.653,195.117 90.653 C 194.902 90.653,194.287 90.904,193.750 91.211 M228.125 101.754 C 228.125 102.021,230.517 103.207,230.695 103.029 C 230.780 102.944,230.237 102.582,229.487 102.225 C 228.738 101.867,228.125 101.656,228.125 101.754 M154.688 110.352 C 154.150 110.659,153.887 110.910,154.102 110.910 C 154.316 110.910,154.932 110.659,155.469 110.352 C 156.006 110.045,156.270 109.793,156.055 109.793 C 155.840 109.793,155.225 110.045,154.688 110.352 M262.891 119.141 C 263.643 119.552,264.434 119.889,264.648 119.889 C 264.863 119.889,264.424 119.552,263.672 119.141 C 262.920 118.729,262.129 118.392,261.914 118.392 C 261.699 118.392,262.139 118.729,262.891 119.141 M280.859 127.927 C 280.859 128.190,284.813 130.161,284.989 129.985 C 285.069 129.905,284.173 129.368,282.997 128.791 C 281.821 128.215,280.859 127.826,280.859 127.927 M197.380 135.837 C 198.839 135.912,201.124 135.912,202.458 135.836 C 203.791 135.760,202.598 135.698,199.805 135.699 C 197.012 135.699,195.920 135.762,197.380 135.837 M120.703 136.894 C 120.703 137.001,121.230 137.362,121.875 137.695 C 122.520 138.029,123.047 138.213,123.047 138.106 C 123.047 137.999,122.520 137.638,121.875 137.305 C 121.230 136.971,120.703 136.787,120.703 136.894 M198.741 142.083 C 199.660 142.166,201.066 142.165,201.866 142.081 C 202.666 141.997,201.914 141.929,200.195 141.931 C 198.477 141.932,197.822 142.001,198.741 142.083 M131.641 142.753 C 131.641 142.861,132.168 143.221,132.813 143.555 C 133.457 143.888,133.984 144.073,133.984 143.965 C 133.984 143.858,133.457 143.497,132.813 143.164 C 132.168 142.831,131.641 142.646,131.641 142.753 M268.127 143.029 C 267.956 143.306,268.019 143.374,268.292 143.205 C 268.619 143.003,268.766 145.649,268.848 153.204 L 268.959 163.477 269.050 153.027 C 269.135 143.281,268.983 141.643,268.127 143.029 M253.809 150.614 C 252.348 151.406,252.437 151.736,253.906 150.977 C 254.551 150.643,255.078 150.287,255.078 150.185 C 255.078 149.934,255.036 149.948,253.809 150.614 M249.023 151.414 C 249.453 151.741,249.761 152.172,249.707 152.371 C 249.653 152.571,249.879 152.734,250.209 152.734 C 251.129 152.734,250.230 151.321,249.133 151.045 C 248.259 150.824,248.257 150.832,249.023 151.414 M157.324 154.719 C 156.694 155.086,156.648 156.034,156.732 166.914 L 156.824 178.711 156.933 167.031 C 157.032 156.482,157.109 155.301,157.721 154.836 C 158.525 154.225,158.291 154.156,157.324 154.719 M266.992 164.129 C 265.857 165.309,265.852 165.326,266.862 164.681 C 267.435 164.315,268.000 163.763,268.119 163.453 C 268.413 162.687,268.337 162.733,266.992 164.129 M266.016 171.598 C 266.016 171.670,266.554 172.245,267.212 172.875 C 267.915 173.548,268.305 173.750,268.156 173.363 C 267.941 172.803,266.016 171.215,266.016 171.598 M167.676 177.242 C 168.911 177.319,170.933 177.319,172.168 177.242 C 173.403 177.164,172.393 177.101,169.922 177.101 C 167.451 177.101,166.440 177.164,167.676 177.242 M234.863 177.613 C 235.239 177.711,235.854 177.711,236.230 177.613 C 236.606 177.515,236.299 177.434,235.547 177.434 C 234.795 177.434,234.487 177.515,234.863 177.613 M157.910 178.394 C 158.286 178.493,158.901 178.493,159.277 178.394 C 159.653 178.296,159.346 178.216,158.594 178.216 C 157.842 178.216,157.534 178.296,157.910 178.394 M202.344 187.204 C 199.957 189.741,199.991 189.865,202.430 187.521 C 203.544 186.451,204.375 185.521,204.278 185.455 C 204.181 185.389,203.311 186.176,202.344 187.204 M198.047 187.109 C 198.277 187.539,198.662 187.891,198.902 187.891 C 199.143 187.891,199.022 187.539,198.633 187.109 C 198.244 186.680,197.859 186.328,197.777 186.328 C 197.696 186.328,197.817 186.680,198.047 187.109 M150.098 191.300 C 150.903 191.384,152.222 191.384,153.027 191.300 C 153.833 191.216,153.174 191.147,151.563 191.147 C 149.951 191.147,149.292 191.216,150.098 191.300 M138.067 191.697 L 134.141 191.822 131.557 196.204 C 130.136 198.614,126.854 204.180,124.264 208.573 C 121.674 212.966,119.611 216.616,119.680 216.685 C 119.749 216.754,121.106 216.534,122.696 216.195 C 124.285 215.856,127.168 215.345,129.102 215.058 C 131.035 214.772,132.063 214.518,131.386 214.495 C 130.710 214.472,128.089 214.806,125.563 215.238 C 123.038 215.670,120.891 215.943,120.792 215.844 C 120.694 215.746,123.302 211.130,126.589 205.586 C 129.876 200.043,132.987 194.761,133.503 193.848 L 134.442 192.188 137.631 192.144 C 139.385 192.120,142.490 191.972,144.531 191.816 L 148.242 191.533 145.117 191.552 C 143.398 191.562,140.226 191.628,138.067 191.697 M156.550 191.689 C 157.252 191.776,158.307 191.774,158.894 191.685 C 159.481 191.596,158.906 191.525,157.617 191.527 C 156.328 191.529,155.848 191.602,156.550 191.689 M236.914 192.166 C 222.754 194.688,210.673 202.043,202.387 213.187 L 200.305 215.986 198.538 213.559 C 190.257 202.193,171.776 191.484,161.042 191.832 C 160.447 191.851,161.367 192.119,163.086 192.428 C 177.328 194.984,192.093 204.198,198.696 214.650 C 200.143 216.940,200.372 216.888,202.578 213.770 C 211.185 201.604,226.368 193.248,242.458 191.820 C 245.754 191.528,245.792 191.514,243.359 191.493 C 241.963 191.480,239.063 191.783,236.914 192.166 M253.428 191.693 C 254.347 191.775,255.753 191.774,256.553 191.690 C 257.353 191.606,256.602 191.539,254.883 191.540 C 253.164 191.542,252.510 191.610,253.428 191.693 M262.003 192.166 L 265.999 192.383 272.864 204.048 C 276.640 210.464,279.647 215.796,279.546 215.897 C 279.445 215.998,277.985 215.809,276.302 215.477 C 272.025 214.633,267.426 214.053,265.499 214.115 C 264.578 214.145,265.386 214.323,267.352 214.525 C 269.269 214.721,273.048 215.291,275.751 215.791 C 278.453 216.292,280.697 216.675,280.737 216.644 C 280.776 216.612,277.528 211.009,273.517 204.192 L 266.225 191.797 262.116 191.873 L 258.008 191.950 262.003 192.166 M134.961 214.041 C 133.672 214.173,136.836 214.217,141.992 214.140 C 147.148 214.062,151.543 213.940,151.758 213.866 C 152.436 213.636,137.414 213.792,134.961 214.041 M252.267 213.963 C 254.480 214.033,257.996 214.033,260.079 213.963 C 262.163 213.893,260.352 213.836,256.055 213.836 C 251.758 213.836,250.053 213.894,252.267 213.963 M155.273 214.493 C 170.472 216.081,186.648 223.150,197.430 232.916 L 200.219 235.442 203.527 232.537 C 214.683 222.746,229.626 216.232,244.964 214.476 L 248.242 214.101 245.117 214.260 C 230.964 214.978,212.716 222.959,202.471 232.913 L 200.449 234.877 197.783 232.543 C 185.708 221.975,166.159 213.765,153.906 214.116 C 152.654 214.152,153.047 214.260,155.273 214.493 M253.816 220.986 C 254.518 221.073,255.572 221.071,256.159 220.982 C 256.746 220.893,256.172 220.822,254.883 220.824 C 253.594 220.826,253.113 220.899,253.816 220.986 M264.362 220.986 C 265.065 221.073,266.119 221.071,266.706 220.982 C 267.293 220.893,266.719 220.822,265.430 220.824 C 264.141 220.826,263.660 220.899,264.362 220.986 M130.957 221.374 C 131.548 221.463,132.515 221.463,133.105 221.374 C 133.696 221.284,133.213 221.211,132.031 221.211 C 130.850 221.211,130.366 221.284,130.957 221.374 M149.322 221.374 C 149.916 221.464,150.794 221.461,151.275 221.369 C 151.755 221.276,151.270 221.203,150.195 221.205 C 149.121 221.208,148.728 221.284,149.322 221.374 M248.145 221.363 C 248.521 221.461,249.136 221.461,249.512 221.363 C 249.888 221.265,249.580 221.184,248.828 221.184 C 248.076 221.184,247.769 221.265,248.145 221.363 M271.191 221.363 C 271.567 221.461,272.183 221.461,272.559 221.363 C 272.935 221.265,272.627 221.184,271.875 221.184 C 271.123 221.184,270.815 221.265,271.191 221.363 M142.268 228.805 C 143.709 228.880,146.170 228.880,147.737 228.806 C 149.304 228.732,148.125 228.670,145.117 228.670 C 142.109 228.669,140.827 228.730,142.268 228.805 M252.246 228.805 C 253.589 228.881,255.786 228.881,257.129 228.805 C 258.472 228.729,257.373 228.666,254.688 228.666 C 252.002 228.666,250.903 228.729,252.246 228.805 M133.306 229.187 C 133.900 229.276,134.779 229.274,135.259 229.181 C 135.740 229.089,135.254 229.015,134.180 229.018 C 133.105 229.021,132.712 229.097,133.306 229.187 M154.395 229.176 C 154.771 229.274,155.386 229.274,155.762 229.176 C 156.138 229.077,155.830 228.997,155.078 228.997 C 154.326 228.997,154.019 229.077,154.395 229.176 M217.480 229.520 C 216.020 230.313,216.109 230.643,217.578 229.883 C 218.223 229.550,218.750 229.193,218.750 229.092 C 218.750 228.840,218.708 228.854,217.480 229.520 M244.634 229.187 C 245.228 229.276,246.107 229.274,246.587 229.181 C 247.068 229.089,246.582 229.015,245.508 229.018 C 244.434 229.021,244.041 229.097,244.634 229.187 M265.337 229.187 C 265.931 229.276,266.810 229.274,267.291 229.181 C 267.771 229.089,267.285 229.015,266.211 229.018 C 265.137 229.021,264.744 229.097,265.337 229.187 M270.801 229.566 C 271.177 229.664,271.792 229.664,272.168 229.566 C 272.544 229.468,272.236 229.388,271.484 229.388 C 270.732 229.388,270.425 229.468,270.801 229.566 M204.298 238.475 C 203.795 239.011,203.469 239.536,203.574 239.642 C 203.680 239.748,204.155 239.309,204.629 238.667 C 205.680 237.245,205.534 237.160,204.298 238.475 M204.257 245.410 L 203.382 246.680 204.621 245.532 C 205.956 244.295,206.053 244.141,205.495 244.141 C 205.295 244.141,204.738 244.712,204.257 245.410 M195.313 244.854 C 195.313 245.031,195.783 245.602,196.358 246.123 L 197.404 247.070 196.527 245.801 C 195.642 244.520,195.313 244.263,195.313 244.854 M102.344 263.537 C 102.344 271.190,102.341 271.213,101.563 270.508 C 100.735 269.759,100.452 270.218,101.250 271.016 C 102.589 272.355,102.734 271.656,102.734 263.867 L 102.734 256.250 106.055 256.250 L 109.375 256.250 109.375 276.743 L 109.375 297.235 105.957 297.365 L 102.539 297.496 106.152 297.576 L 109.766 297.656 109.766 276.758 L 109.766 255.859 106.055 255.859 L 102.344 255.859 102.344 263.537 M54.688 277.344 L 54.688 297.656 66.992 297.656 L 79.297 297.656 79.218 294.434 L 79.140 291.211 79.007 294.238 L 78.873 297.266 66.976 297.266 L 55.078 297.266 55.078 277.344 L 55.078 257.422 66.780 257.422 L 78.483 257.422 78.616 260.449 L 78.749 263.477 78.828 260.254 L 78.906 257.031 66.797 257.031 L 54.688 257.031 54.688 277.344 M244.222 264.941 L 244.304 268.945 244.432 265.137 L 244.560 261.328 247.866 261.328 L 251.172 261.328 251.172 265.039 L 251.172 268.750 252.246 268.697 C 253.167 268.651,253.195 268.619,252.441 268.474 C 251.604 268.313,251.563 268.131,251.563 264.621 L 251.563 260.938 247.852 260.938 L 244.141 260.938 244.222 264.941 M187.413 267.865 C 188.331 267.947,189.738 267.946,190.538 267.862 C 191.338 267.778,190.586 267.711,188.867 267.712 C 187.148 267.713,186.494 267.782,187.413 267.865 M224.316 267.858 C 224.907 267.947,225.874 267.947,226.465 267.858 C 227.056 267.768,226.572 267.695,225.391 267.695 C 224.209 267.695,223.726 267.768,224.316 267.858 M273.741 267.865 C 274.660 267.947,276.066 267.946,276.866 267.862 C 277.666 267.778,276.914 267.711,275.195 267.712 C 273.477 267.713,272.822 267.782,273.741 267.865 M304.004 267.847 C 304.380 267.946,304.995 267.946,305.371 267.847 C 305.747 267.749,305.439 267.669,304.688 267.669 C 303.936 267.669,303.628 267.749,304.004 267.847 M336.612 267.860 C 337.306 267.946,338.536 267.948,339.347 267.863 C 340.157 267.779,339.590 267.708,338.086 267.706 C 336.582 267.705,335.919 267.774,336.612 267.860 M122.045 278.125 C 122.045 283.604,122.100 285.845,122.167 283.105 C 122.234 280.366,122.234 275.884,122.167 273.145 C 122.100 270.405,122.045 272.646,122.045 278.125 M133.899 279.297 C 133.838 285.313,133.921 290.235,134.082 290.235 C 134.243 290.234,134.375 285.313,134.375 279.297 C 134.375 273.281,134.292 268.359,134.192 268.359 C 134.091 268.359,133.959 273.281,133.899 279.297 M141.016 282.813 L 141.016 297.266 137.718 297.266 L 134.420 297.266 134.270 295.605 L 134.121 293.945 134.053 295.801 L 133.984 297.656 137.695 297.656 L 141.406 297.656 141.406 283.008 C 141.406 274.951,141.318 268.359,141.211 268.359 C 141.104 268.359,141.016 274.863,141.016 282.813 M208.296 282.910 L 208.203 297.656 212.012 297.575 L 215.820 297.494 212.212 297.365 L 208.603 297.236 208.496 282.700 L 208.389 268.164 208.296 282.910 M259.375 271.094 L 259.375 273.828 255.273 273.828 L 251.172 273.828 251.261 281.934 L 251.350 290.039 251.464 282.129 L 251.579 274.219 255.672 274.219 L 259.766 274.219 259.766 271.289 C 259.766 269.678,259.678 268.359,259.570 268.359 C 259.463 268.359,259.375 269.590,259.375 271.094 M319.318 283.594 C 319.318 291.865,319.370 295.249,319.433 291.113 C 319.496 286.978,319.496 280.210,319.433 276.074 C 319.370 271.938,319.318 275.322,319.318 283.594 M197.261 270.304 C 197.488 270.728,198.066 271.278,198.544 271.526 C 199.269 271.901,199.223 271.773,198.267 270.754 C 196.938 269.338,196.683 269.223,197.261 270.304 M345.450 270.348 C 345.765 270.798,346.434 271.441,346.937 271.777 C 347.541 272.181,347.395 271.904,346.505 270.960 C 344.997 269.359,344.593 269.125,345.450 270.348 M312.891 270.671 C 312.891 271.082,312.671 271.508,312.402 271.616 C 312.111 271.734,312.189 271.826,312.598 271.844 C 313.075 271.866,313.281 271.580,313.281 270.898 C 313.281 270.361,313.193 269.922,313.086 269.922 C 312.979 269.922,312.891 270.259,312.891 270.671 M85.526 271.755 C 84.499 272.856,84.404 273.057,85.128 272.605 C 85.981 272.072,87.448 270.313,87.038 270.313 C 86.947 270.313,86.266 270.962,85.526 271.755 M178.256 273.047 C 178.256 274.658,178.325 275.317,178.410 274.512 C 178.494 273.706,178.494 272.388,178.410 271.582 C 178.325 270.776,178.256 271.436,178.256 273.047 M216.410 271.285 C 216.144 271.605,215.771 271.770,215.581 271.652 C 215.390 271.535,215.234 271.624,215.234 271.852 C 215.234 272.566,216.359 272.302,216.797 271.484 C 217.290 270.564,217.093 270.462,216.410 271.285 M187.012 273.323 C 187.495 273.416,188.286 273.416,188.770 273.323 C 189.253 273.229,188.857 273.153,187.891 273.153 C 186.924 273.153,186.528 273.229,187.012 273.323 M273.150 273.327 C 273.744 273.417,274.623 273.415,275.103 273.322 C 275.583 273.229,275.098 273.156,274.023 273.159 C 272.949 273.162,272.556 273.237,273.150 273.327 M337.012 273.323 C 337.495 273.416,338.286 273.416,338.770 273.323 C 339.253 273.229,338.857 273.153,337.891 273.153 C 336.924 273.153,336.528 273.229,337.012 273.323 M241.691 274.117 L 244.124 274.256 244.239 281.952 L 244.353 289.648 244.442 281.738 L 244.531 273.828 241.895 273.903 L 239.258 273.979 241.691 274.117 M68.635 274.511 L 75.746 274.627 75.882 277.255 L 76.019 279.883 76.095 277.051 L 76.172 274.219 68.848 274.307 L 61.523 274.395 68.635 274.511 M217.338 275.137 C 217.098 275.384,216.527 275.844,216.068 276.160 C 215.249 276.725,215.236 276.912,215.325 286.903 L 215.416 297.070 215.516 287.109 L 215.616 277.148 216.866 276.082 C 217.553 275.496,218.038 274.942,217.944 274.852 C 217.850 274.762,217.577 274.890,217.338 275.137 M101.697 276.105 C 102.453 276.940,102.685 289.977,101.953 290.430 C 101.738 290.562,101.563 290.849,101.563 291.067 C 101.563 291.284,101.826 291.198,102.148 290.876 C 102.989 290.036,103.014 276.786,102.176 275.949 C 101.358 275.130,100.939 275.267,101.697 276.105 M312.267 282.227 C 312.268 285.664,312.328 287.018,312.400 285.235 C 312.473 283.453,312.472 280.640,312.399 278.985 C 312.326 277.331,312.267 278.789,312.267 282.227 M193.359 277.906 C 193.359 279.171,193.274 279.259,191.895 279.403 L 190.430 279.556 192.090 279.622 L 193.750 279.688 193.750 278.125 C 193.750 277.266,193.662 276.563,193.555 276.563 C 193.447 276.563,193.359 277.167,193.359 277.906 M286.882 284.375 C 286.882 288.564,286.940 290.278,287.010 288.184 C 287.080 286.089,287.080 282.661,287.010 280.566 C 286.940 278.472,286.882 280.186,286.882 284.375 M343.075 278.516 C 343.075 279.482,343.151 279.878,343.244 279.395 C 343.338 278.911,343.338 278.120,343.244 277.637 C 343.151 277.153,343.075 277.549,343.075 278.516 M235.156 287.500 L 235.156 297.266 231.843 297.266 L 228.530 297.266 228.418 288.379 L 228.305 279.492 228.215 288.574 L 228.125 297.656 231.836 297.656 L 235.547 297.656 235.547 287.695 C 235.547 282.217,235.459 277.734,235.352 277.734 C 235.244 277.734,235.156 282.129,235.156 287.500 M279.592 278.711 C 279.489 279.248,279.557 279.688,279.742 279.688 C 279.927 279.688,280.078 279.248,280.078 278.711 C 280.078 278.174,280.011 277.734,279.928 277.734 C 279.846 277.734,279.695 278.174,279.592 278.711 M277.051 279.566 C 277.427 279.664,278.042 279.664,278.418 279.566 C 278.794 279.468,278.486 279.388,277.734 279.388 C 276.982 279.388,276.675 279.468,277.051 279.566 M65.348 280.368 C 66.807 280.444,69.093 280.443,70.426 280.367 C 71.760 280.291,70.566 280.229,67.773 280.230 C 64.980 280.231,63.889 280.293,65.348 280.368 M74.316 280.347 C 74.692 280.446,75.308 280.446,75.684 280.347 C 76.060 280.249,75.752 280.169,75.000 280.169 C 74.248 280.169,73.940 280.249,74.316 280.347 M88.797 283.203 C 88.797 284.600,88.868 285.171,88.954 284.473 C 89.041 283.774,89.041 282.632,88.954 281.934 C 88.868 281.235,88.797 281.807,88.797 283.203 M81.362 283.008 C 81.365 284.082,81.441 284.475,81.530 283.881 C 81.620 283.288,81.618 282.409,81.525 281.928 C 81.432 281.448,81.359 281.934,81.362 283.008 M323.555 283.203 C 323.555 284.385,323.628 284.868,323.717 284.277 C 323.807 283.687,323.807 282.720,323.717 282.129 C 323.628 281.538,323.555 282.021,323.555 283.203 M179.860 282.195 C 179.444 282.499,179.206 282.852,179.332 282.978 C 179.459 283.105,179.881 282.855,180.271 282.424 C 181.101 281.507,180.931 281.412,179.860 282.195 M349.663 283.105 L 349.609 284.375 340.039 284.375 C 334.775 284.375,330.469 284.507,330.468 284.668 C 330.468 284.829,334.783 284.911,340.056 284.850 C 350.324 284.731,350.270 284.743,349.889 282.743 C 349.757 282.052,349.703 282.139,349.663 283.105 M193.439 286.738 C 193.390 289.017,193.177 290.651,192.891 290.938 C 192.534 291.294,192.533 291.406,192.883 291.406 C 193.584 291.406,193.799 289.985,193.652 286.328 L 193.518 283.008 193.439 286.738 M189.941 283.863 C 190.317 283.961,190.933 283.961,191.309 283.863 C 191.685 283.765,191.377 283.684,190.625 283.684 C 189.873 283.684,189.565 283.765,189.941 283.863 M275.879 283.863 C 276.255 283.961,276.870 283.961,277.246 283.863 C 277.622 283.765,277.314 283.684,276.563 283.684 C 275.811 283.684,275.503 283.765,275.879 283.863 M270.537 285.597 C 270.124 285.999,269.970 286.328,270.196 286.328 C 270.647 286.328,271.689 285.220,271.442 285.002 C 271.358 284.927,270.951 285.195,270.537 285.597 M159.015 289.160 C 158.998 289.536,159.248 289.844,159.570 289.844 C 159.893 289.844,160.154 289.536,160.150 289.160 C 160.146 288.625,160.071 288.592,159.807 289.009 C 159.522 289.459,159.437 289.459,159.258 289.009 C 159.110 288.638,159.037 288.684,159.015 289.160 M332.422 290.126 C 332.422 290.618,333.538 291.592,333.801 291.329 C 333.904 291.226,333.637 290.822,333.206 290.432 C 332.775 290.042,332.422 289.904,332.422 290.126 M91.016 291.211 C 91.283 291.533,91.678 291.797,91.893 291.797 C 92.110 291.797,92.068 291.538,91.797 291.211 C 91.529 290.889,91.135 290.625,90.920 290.625 C 90.702 290.625,90.744 290.884,91.016 291.211 M258.398 291.832 C 257.685 292.171,257.697 292.188,258.527 292.029 C 259.418 291.857,259.434 291.909,259.308 294.561 C 259.238 296.049,259.312 297.267,259.473 297.267 C 259.634 297.266,259.766 295.947,259.766 294.336 C 259.766 291.311,259.710 291.209,258.398 291.832 M270.875 292.395 C 271.292 292.711,271.908 292.963,272.243 292.955 C 272.633 292.946,272.501 292.741,271.875 292.383 C 270.597 291.652,269.904 291.661,270.875 292.395 M95.020 292.858 C 95.610 292.947,96.577 292.947,97.168 292.858 C 97.759 292.768,97.275 292.695,96.094 292.695 C 94.912 292.695,94.429 292.768,95.020 292.858 M244.934 293.092 C 244.910 293.728,245.742 294.922,246.205 294.916 C 246.532 294.912,246.548 294.821,246.256 294.623 C 246.022 294.465,245.632 293.984,245.389 293.555 C 245.145 293.125,244.940 292.917,244.934 293.092 M289.141 293.247 C 290.107 293.394,290.207 293.577,290.338 295.434 L 290.480 297.461 290.553 295.215 L 290.625 292.969 289.355 293.027 C 288.203 293.080,288.183 293.101,289.141 293.247 M193.007 295.020 C 192.477 295.883,192.481 295.886,193.264 295.191 C 193.876 294.646,194.107 294.601,194.265 294.996 C 194.398 295.330,194.480 295.271,194.500 294.824 C 194.544 293.858,193.649 293.975,193.007 295.020 M263.672 294.650 C 263.672 294.719,264.221 295.292,264.893 295.923 C 265.747 296.726,265.964 296.824,265.616 296.249 C 265.186 295.540,263.672 294.294,263.672 294.650 M247.656 296.443 C 247.656 296.937,249.197 297.808,249.513 297.493 C 249.637 297.368,249.547 297.266,249.312 297.266 C 249.076 297.266,248.608 296.989,248.270 296.652 C 247.932 296.314,247.656 296.220,247.656 296.443 M157.520 297.553 C 158.540 297.633,160.210 297.633,161.230 297.553 C 162.251 297.472,161.416 297.406,159.375 297.406 C 157.334 297.406,156.499 297.472,157.520 297.553 M310.155 302.150 C 309.651 302.686,309.357 303.125,309.502 303.125 C 309.881 303.125,311.424 301.529,311.232 301.336 C 311.143 301.248,310.659 301.614,310.155 302.150 M294.643 306.055 C 294.646 307.129,294.722 307.522,294.812 306.928 C 294.901 306.334,294.899 305.456,294.806 304.975 C 294.714 304.495,294.640 304.980,294.643 306.055 " stroke="none" fill="#607186" fill-rule="evenodd"></path></g></svg>