<svg xmlns="http://www.w3.org/2000/svg" version="1.1" viewBox="0 0 227 322"><g stroke-width="2" fill="none" stroke-linecap="butt"><path stroke="#356582" vector-effect="non-scaling-stroke" d="M135.55 12.29q-.85.27-.95.94l-3.22 20.95a.64.63-80.6 0 0 .51.72q.72.12 1.83-.53"/><path stroke="#08487b" vector-effect="non-scaling-stroke" d="m133.72 34.37 9.47 1.96"/><path stroke="#0d2e49" vector-effect="non-scaling-stroke" d="m143.19 36.33 3.06 1.7a1.12 1.12 0 0 0 1.64-.76l4.19-20.88a1.53 1.39 46.7 0 0-.01-.61q-.32-1.44-2.07-2.31-2.12-1.07-2.86-1.07"/><path stroke="#08487b" vector-effect="non-scaling-stroke" d="M147.14 12.4q-6.2-1.85-10.7-.7-.59.15-.89.59"/><path stroke="#0f65aa" vector-effect="non-scaling-stroke" d="M147.14 12.4q-1.08 11.9-3.95 23.93"/><path stroke="#379ce3" vector-effect="non-scaling-stroke" d="m133.72 34.37 3.38-21.6a.5.5 0 0 0-.3-.56q-.5-.24-1.25.08"/><path stroke="#356582" vector-effect="non-scaling-stroke" d="M134.35 36.15q-1.71-.04-1.95 1.78-.42 3.24.29 5.35"/><path stroke="#08487b" vector-effect="non-scaling-stroke" d="M132.69 43.28 140 44.3"/><path stroke="#0d2e49" vector-effect="non-scaling-stroke" d="M140 44.3q1.81 1.03 3.34.52a.8.8 0 0 0 .57-.69l.51-4.3a1.23 1.21 27.5 0 0-.32-.98q-.98-1.04-2.5-1.17"/><path stroke="#08487b" vector-effect="non-scaling-stroke" d="M141.6 37.68q-3.63-1.86-7.25-1.53"/><path stroke="#0f65aa" vector-effect="non-scaling-stroke" d="M141.6 37.68q-1.5 3.33-1.6 6.62"/><path stroke="#379ce3" vector-effect="non-scaling-stroke" d="M132.69 43.28q1.95-3 1.66-7.13"/><path stroke="#08487b" vector-effect="non-scaling-stroke" d="M106.89 81.98q3.23 7.89 10.53 11.42"/><path stroke="#0d2e49" vector-effect="non-scaling-stroke" d="M117.42 93.4q7.08 4.46 14.33 4 6.78-.43 13.49-4.74a2.85 2.75-83.9 0 0 .61-.51l5.26-5.86a.4.4 0 0 1 .66.44q-1.46 3.13-4.15 5.35a.51.49-6.8 0 0-.14.17l-.44.82a.31.31 0 0 0 .42.43c5.98-3.15 9.52-6.85 11.03-13.47 2.48-10.84.53-20.99-8.76-27.7a2.55 2.17 68.1 0 0-.59-.31l-5.44-1.93"/><path stroke="#356582" vector-effect="non-scaling-stroke" d="M143.7 50.09c-20.92-11.31-45.78 9.11-36.81 31.89"/><path stroke="#3b82b1" vector-effect="non-scaling-stroke" d="m143.7 50.09 3.69 3.32"/><path stroke="#379ce3" vector-effect="non-scaling-stroke" d="M147.39 53.41q-.69 1.71-3.19-.51a1.9 1.89-12.7 0 0-.59-.37l-5.93-2.4a2.72 2.65 58.3 0 0-.68-.17q-9.91-1.18-16.34 2.24-12.28 6.55-13.6 20.16-.1 1.02.12 4.79.14 2.43-.29 4.83"/><path stroke="#0f65aa" vector-effect="non-scaling-stroke" d="M147.39 53.41q3.64 4.33 5.56 9.88a4.06 3.54 36.7 0 1 .21.97c.48 5.68-.8 9.84-2.2 14.92-1.34 4.84-4.43 7.67-8.27 11.41a3.71 3.4 5.9 0 1-.74.55q-10.8 6.18-24.53 2.26"/><path stroke="#08487b" vector-effect="non-scaling-stroke" d="M30.97 253.77q8.16-13.14 13.46-23.08 34.58-64.86 69.93-129.18"/><path stroke="#0d2e49" vector-effect="non-scaling-stroke" d="m114.36 101.51 2.66-4.63a.54.53 31.5 0 0-.18-.72l-5.56-3.61a.63.57 81.4 0 1-.16-.13l-3.63-3.84"/><path stroke="#08487b" vector-effect="non-scaling-stroke" d="M107.49 88.58q.07.29-.23-.11"/><path stroke="#356582" vector-effect="non-scaling-stroke" d="M107.26 88.47q-.07-1-.81-1.02a.5.5-74 0 0-.42.24c-1.71 3.15-2.96 6.29-4.75 9.64q-22.19 41.53-51.02 96.98c-4.41 8.48-10.24 18.68-14.57 27.39q-1.94 3.92-2.41 6.58-2.81 15.87-5.9 32.03a.31.31 0 0 0 .59.19l3-6.73"/><path stroke="#379ce3" vector-effect="non-scaling-stroke" d="M107.26 88.47q-.42 1.78-.88 2.61-10.57 19.13-19.92 37.24c-4.59 8.87-9.04 16.67-13.35 25.38q-3.54 7.15-9.94 19.05-13.37 24.81-24.87 48.94-2.13 4.46-3.05 7.84-.68 2.48-1.91 8.23-2.09 9.72-2.37 16.01"/><path stroke="#0f65aa" vector-effect="non-scaling-stroke" d="M107.49 88.58q.35 1.86 1.37 3.27l3.9 5.37q.83 1.14 1.6 4.29"/><path stroke="#356582" vector-effect="non-scaling-stroke" d="M136.72 105.41q-.25.38-.21.67 8.19 67.65 16.32 135.3.11.94 1.17 1"/><path stroke="#08487b" vector-effect="non-scaling-stroke" d="M154 242.38q6.23 2.57 11.39-.94"/><path stroke="#0d2e49" vector-effect="non-scaling-stroke" d="M165.39 241.44q2.1.46 3-.04c1.75-.97 2.34-2.08 2.01-4.12q-1.5-9.1-1.9-14.72-.29-4.14-1.54-11.03-.77-4.28-1.43-11.06-.21-2.17-.93-4.22-.6-1.7-.51-4.39.04-1.12-.91-6.79-.64-3.84-.94-6.68-1.09-10.25-2.25-17.58c-1.14-7.22-1.38-14.52-2.65-22.57a3.27 3.26 18.8 0 0-.85-1.72c-2.86-3.01-1.79-7.51-1.03-11.53a2.95 2.79 46.6 0 0 0-1.01q-.68-3.74-1.07-9.73-.25-3.92-1.81-10.24a1.04.92 41.4 0 1-.03-.24l-.48-8.9a.6.6 0 0 0-.55-.54c-1.76-.09-3.13 1.72-5.04 2.48q-5.5 2.19-9.83 3.6a1.2 1.2 0 0 0-.81.9q-.4 1.93.88 4.1"/><path stroke="#0f65aa" vector-effect="non-scaling-stroke" d="M165.39 241.44q-.8-6.27-1.37-12.8-.69-7.84-1.31-12.8-3.54-28.43-7.01-53.58-4.69-33.96-8.03-61.76a.64.64 0 0 0-1.02-.44q-4.09 3.02-9.41 4.61"/><path stroke="#3b82b1" vector-effect="non-scaling-stroke" d="m137.24 104.67-.52.74"/><path stroke="#379ce3" vector-effect="non-scaling-stroke" d="M154 242.38q.78.01.65-.96-3.79-28.42-3.91-29.41-4.8-38.38-9.27-76.8-.34-2.91-3.21-29.61-.1-1-1.02-.93"/><path stroke="#0d2e49" vector-effect="non-scaling-stroke" d="M29.54 263.89q1.33-.96 1.53-1.52.6-1.69 2.19-3.64.19-.23.29-.9a1.39 1.36 73.3 0 1 .43-.82c2.04-1.86 2.86-4.76 4.16-7.14q22.02-40.29 34.96-63.3 5.58-9.91 6.51-11.69c4.78-9.09 9.72-17.05 14.38-26.02 4.39-8.45 8.33-14.92 13.41-23.47a1.65 1.6-37.6 0 0 .18-1.24q-1.54-5.94 4.07-8.67a1.73 1.72 3.4 0 0 .69-.61q4.04-6.03 7.13-13.55a1.45 1.06 81.2 0 1 .15-.29l1.48-2.14a.68.68 0 0 0-.48-1.06l-1.05-.13a2 2 0 0 0-1.99 1.04l-8.01 14.92-.08.12q-.83 1.07-1.1 1.6-9.34 18.57-19.37 35.44-.1.16-.16.63a2.45 2.41-27.2 0 1-.28.85q-10.44 18.52-12.35 22.22-11.48 22.23-17.98 33.52-.65 1.15-2.56 5-.47.94-24.24 44.19-1.53 2.78-2.27 6.43a.23.23 0 0 0 .36.23"/><path stroke="#282e35" vector-effect="non-scaling-stroke" d="m75.49 115.6 1.58-4.57a.5.5 0 0 0-.3-.63l-.14-.04a2.3 2.23-71 0 0-2.85 1.45l-.4 1.15a2.3 2.23-71 0 0 1.36 2.9l.13.05a.5.5 0 0 0 .62-.31m5.18-1.7q-.01.65-.52 2.47a.87.86-72.4 0 0 .53 1.04q.75.29 1.74 0a1.31 1.28-34.1 0 1 1.16.21q.81.63 1 .75a1.52 1.46-76.8 0 0 2.26-1.47q-.14-1.46 1.16-1.82a1.01.97 50.4 0 0 .14-1.83q-1.57-.84-3.17-.54a1.28 1.26-32 0 1-.98-.22q-.87-.64-2.43-.5c-.97.09-1.58-.7-2.4-.96a.8.8 0 0 0-.96.46l-1.56 3.85a1.01 1.01 0 0 0 1.81.89l1.47-2.55a.41.41 61.1 0 1 .75.22m38.09 7.65q-2.03 3.17-1.27 6.48c.86 3.74 3.47 5.49 7.31 4.36a1.18 1.17-21.6 0 0 .72-1.66l-1.55-3.08a1.47 1.44-55.8 0 1-.15-.83l.66-5.9m-12.08-1.75a.85.85 0 0 0-.6-1.04l-.13-.04a.85.85 0 0 0-1.05.6l-1.02 3.7a.85.85 0 0 0 .6 1.04l.13.04a.85.85 0 0 0 1.05-.6l1.02-3.7"/><path stroke="#282e35" vector-effect="non-scaling-stroke" d="m116.06 118.96-1.89-.32a.45.45 0 0 0-.52.37l-.19 1.08a3.77 1.32-80.4 0 0 .68 3.94l.18.03a3.77 1.32-80.4 0 0 1.93-3.5l.18-1.08a.45.45 0 0 0-.37-.52m12.74 6.81q1.19-1.71 1.37-3.47a.85.85 0 0 0-1.51-.61q-1.62 2.08-.89 5.44a.38.38 0 0 0 .64.19q.11-.12.19-1.02a1.13 1.11-24.8 0 1 .2-.53m3.51.74q1.09-1.74.93-3.35a.82.82 0 0 0-1.45-.45q-1.67 2.01-.29 4.81a.33.33 0 0 0 .62-.14l.01-.23a1.24 1.18 62.1 0 1 .18-.64"/><path stroke="#282e35" vector-effect="non-scaling-stroke" d="M135.27 123.38a2.65.84-91.8 0 0-.76 2.68 2.65.84-91.8 0 0 .92 2.62 2.65.84-91.8 0 0 .76-2.68 2.65.84-91.8 0 0-.92-2.62m24.1 5.2-1.53-.21a.15.15 0 0 0-.17.13l-.02.18a3.49.84-82.3 0 0 .36 3.57l.16.02a3.49.84-82.3 0 0 1.3-3.34l.03-.18a.15.15 0 0 0-.13-.17"/><path stroke="#282e35" vector-effect="non-scaling-stroke" d="m163.01 129.59-1.46-.56a.3.3 0 0 0-.37.16l-.09.23a3.87.86-68.7 0 0-.6 3.91l.39.16a3.87.86-68.7 0 0 2.2-3.3l.09-.22a.3.3 0 0 0-.16-.38"/><path stroke="#282e35" vector-effect="non-scaling-stroke" d="M166.57 130.62a1.44.89-17.2 0 0-1.64-.42 1.44.89-17.2 0 0-1.12 1.28 1.44.89-17.2 0 0 1.64.42 1.44.89-17.2 0 0 1.12-1.28m2.63-.18a1.34 1.15-81.5 0 0-1.34 1.16 1.34 1.15-81.5 0 0 .94 1.5 1.34 1.15-81.5 0 0 1.34-1.16 1.34 1.15-81.5 0 0-.94-1.5"/><path stroke="#08487b" vector-effect="non-scaling-stroke" d="M169.18 243.76q-6.28 1.64-9.18 1.97-3.01.33-6.62-.69"/><path stroke="#356582" vector-effect="non-scaling-stroke" d="M153.38 245.04q-1.57-.68-2.28-1.37a1.18 1.18 0 0 0-2 .99q1.79 13.3 2.86 26.35.2 2.5 2.58 3.3"/><path stroke="#08487b" vector-effect="non-scaling-stroke" d="M154.54 274.31q2.55 1.63 6.21 1.33 5.47-.46 8.71-1.49"/><path stroke="#0d2e49" vector-effect="non-scaling-stroke" d="M169.46 274.15q4.57-.31 5.57-3.53a1.54 1.32-40.5 0 0 .07-.44q.14-8.79.08-19.93-.02-4.8-1.49-9.14a.98.98 0 0 0-1.64-.36l-2.87 3.01"/><path stroke="#0f65aa" vector-effect="non-scaling-stroke" d="m169.46 274.15-.55-25.36a1.03 1.02 24.9 0 0-.25-.67q-.83-.94.12-1.98a1.31 1.29-22.8 0 0 .34-.82l.06-1.56"/><path stroke="#379ce3" vector-effect="non-scaling-stroke" d="M153.38 245.04q-1.64 1.53-1.54 2.73 1.04 11.76 4.06 25.98a.51.5-10.2 0 1-.42.6q-.45.08-.94-.04"/><path stroke="#282e35" vector-effect="non-scaling-stroke" d="m166.19 277.05-5.41.84a.8.8 0 0 0-.69.94l.51 3.28a9.9 2.19 81.2 0 0 3.68 9.45l2.71-.42a9.9 2.19 81.2 0 0 .65-10.12l-.51-3.28a.8.8 0 0 0-.94-.69"/><path stroke="#08487b" vector-effect="non-scaling-stroke" d="M121.55 64.22a9.51 9.07-135.7 0 0 .48 13.13 9.51 9.07-135.7 0 0 13.14.15 9.51 9.07-135.7 0 0-.48-13.13 9.51 9.07-135.7 0 0-13.14-.15"/><path stroke="#08487b" vector-effect="non-scaling-stroke" d="M134.92 70.45a7.05 7.05 0 0 0-7.05-7.05 7.05 7.05 0 0 0-7.05 7.05 7.05 7.05 0 0 0 7.05 7.05 7.05 7.05 0 0 0 7.05-7.05"/></g><path fill="#06111a" d="M168.26 306.03a.72.72 0 0 1-1.36.24q-1.86-3.73-3.43-8.72-2.58-8.17-5.24-16.76c-1.19-3.81-4.77-4.04-7-6.49a4 4 15.5 0 1-.84-1.48q-1.23-4.01-1.77-8.38l-2.1-17.19q-.45-3.69 2.21-5.8a2.6 2.6 70.7 0 0 .97-2.03q.01-1.47-.34-4.13-4.04-30.75-7.43-59.54-1.08-9.08-2.96-22.82c-.92-6.72-1.17-13.68-2.45-19.67-.43-2.04-5.41-2.53-6.9-1.96a1.73 1.57-74.3 0 0-.51.32l-2.11 1.96a3 3 0 0 1-1.3.71q-5.08 1.3-8.63-1.79a2.71 2.66 9.6 0 1-.71-.98l-1.27-2.9a2.66 2.59 7 0 0-.85-1.06q-.97-.72-3.31-1.1a1.7 1.7 0 0 0-1.63.73c-4.47 6.84-7.71 14.35-11.85 21.19q-5.22 8.63-7.73 13.31Q77.83 183.83 58.73 218q-13.96 24.97-33.2 56.54-1.04 1.7-2.01 2.57a.61.6 73.3 0 1-1-.54q3.75-26.98 8.11-49.18.38-1.95 1.77-5.05 3.25-7.29 4.97-10.47 13.01-24.09 24.48-46.72 10.11-19.95 20.99-39.58.38-.67 1.19-3.08a1.29 1.28-75.6 0 0-.99-1.68q-4.03-.72-7.88-1.68-6.42-1.61-4.65-7.28 1.56-4.97 6.95-3.78 3.26.71 11.63 2.7a1.7 1.69-70.1 0 0 1.92-.91q6.04-12.54 13.28-24.16a2.2 2.2 0 0 0 .22-1.8q-1.09-3.33-1.72-7.4c-2.64-16.93 9.75-30.04 25.94-32.36a1.68 1.67-9.6 0 0 1.41-1.98l-1.42-7.29a1.13.85-55.4 0 1-.01-.25q1.02-11.15 3.45-20.92c1.79-7.22 12.78-4.89 17.5-2.68 4.77 2.24 4.68 4.45 3.69 9.66-1.12 5.92-2 12.26-3.73 18.34a1.76 1.73 71.1 0 1-.24.5l-3 4.22a2.26 2.26 34.7 0 0 .58 3.17c2.99 2.02 6.5 4.12 8.9 7.19q8.99 11.53 5.96 25.33c-1.17 5.3-4.06 9.38-7.54 13.42a1.34 1.33 60.7 0 0-.31 1.11q2.39 13.84 3.53 29.52a2.3 2.3-84.3 0 0 1.63 2q7.24 2.01 12.25 3.03c3.84.78 6.65 2.89 5.05 6.87-1.79 4.48-5.02 3.67-9.43 2.97q-2.18-.35-5.54-1.12a1.3 1.3 0 0 0-1.59 1.45q2.51 18.52 4.23 33.8c1.1 9.71 2.96 20.03 4.16 30.87q2.91 26.29 4.04 33.13c.25 1.55 2.48 2.03 3.1 3.28q.81 1.65 1.07 3.76 1.09 8.82.78 26.22-.08 4.35-4.01 5.45a2.1 2.1 85.6 0 0-1.51 1.77zM135.55 12.29q-.85.27-.95.94l-3.22 20.95a.64.63-80.6 0 0 .51.72q.72.12 1.83-.53l9.47 1.96 3.06 1.7a1.12 1.12 0 0 0 1.64-.76l4.19-20.88a1.53 1.39 46.7 0 0-.01-.61q-.32-1.44-2.07-2.31-2.12-1.07-2.86-1.07-6.2-1.85-10.7-.7-.59.15-.89.59m-1.2 23.86q-1.71-.04-1.95 1.78-.42 3.24.29 5.35L140 44.3q1.81 1.03 3.34.52a.8.8 0 0 0 .57-.69l.51-4.3a1.23 1.21 27.5 0 0-.32-.98q-.98-1.04-2.5-1.17-3.63-1.86-7.25-1.53m-27.46 45.83q3.23 7.89 10.53 11.42 7.08 4.46 14.33 4 6.78-.43 13.49-4.74a2.85 2.75-83.9 0 0 .61-.51l5.26-5.86a.4.4 0 0 1 .66.44q-1.46 3.13-4.15 5.35a.51.49-6.8 0 0-.14.17l-.44.82a.31.31 0 0 0 .42.43c5.98-3.15 9.52-6.85 11.03-13.47 2.48-10.84.53-20.99-8.76-27.7a2.55 2.17 68.1 0 0-.59-.31l-5.44-1.93c-20.92-11.31-45.78 9.11-36.81 31.89M30.97 253.77q8.16-13.14 13.46-23.08 34.58-64.86 69.93-129.18l2.66-4.63a.54.53 31.5 0 0-.18-.72l-5.56-3.61a.63.57 81.4 0 1-.16-.13l-3.63-3.84q.07.29-.23-.11-.07-1-.81-1.02a.5.5-74 0 0-.42.24c-1.71 3.15-2.96 6.29-4.75 9.64q-22.19 41.53-51.02 96.98c-4.41 8.48-10.24 18.68-14.57 27.39q-1.94 3.92-2.41 6.58-2.81 15.87-5.9 32.03a.31.31 0 0 0 .59.19zm105.75-148.36q-.25.38-.21.67 8.19 67.65 16.32 135.3.11.94 1.17 1 6.23 2.57 11.39-.94 2.1.46 3-.04c1.75-.97 2.34-2.08 2.01-4.12q-1.5-9.1-1.9-14.72-.29-4.14-1.54-11.03-.77-4.28-1.43-11.06-.21-2.17-.93-4.22-.6-1.7-.51-4.39.04-1.12-.91-6.79-.64-3.84-.94-6.68-1.09-10.25-2.25-17.58c-1.14-7.22-1.38-14.52-2.65-22.57a3.27 3.26 18.8 0 0-.85-1.72c-2.86-3.01-1.79-7.51-1.03-11.53a2.95 2.79 46.6 0 0 0-1.01q-.68-3.74-1.07-9.73-.25-3.92-1.81-10.24a1.04.92 41.4 0 1-.03-.24l-.48-8.9a.6.6 0 0 0-.55-.54c-1.76-.09-3.13 1.72-5.04 2.48q-5.5 2.19-9.83 3.6a1.2 1.2 0 0 0-.81.9q-.4 1.93.88 4.1M29.54 263.89q1.33-.96 1.53-1.52.6-1.69 2.19-3.64.19-.23.29-.9a1.39 1.36 73.3 0 1 .43-.82c2.04-1.86 2.86-4.76 4.16-7.14q22.02-40.29 34.96-63.3 5.58-9.91 6.51-11.69c4.78-9.09 9.72-17.05 14.38-26.02 4.39-8.45 8.33-14.92 13.41-23.47a1.65 1.6-37.6 0 0 .18-1.24q-1.54-5.94 4.07-8.67a1.73 1.72 3.4 0 0 .69-.61q4.04-6.03 7.13-13.55a1.45 1.06 81.2 0 1 .15-.29l1.48-2.14a.68.68 0 0 0-.48-1.06l-1.05-.13a2 2 0 0 0-1.99 1.04l-8.01 14.92-.08.12q-.83 1.07-1.1 1.6-9.34 18.57-19.37 35.44-.1.16-.16.63a2.45 2.41-27.2 0 1-.28.85q-10.44 18.52-12.35 22.22-11.48 22.23-17.98 33.52-.65 1.15-2.56 5-.47.94-24.24 44.19-1.53 2.78-2.27 6.43a.23.23 0 0 0 .36.23m103.77-161.93a1.33 1.32-88.7 0 0-1.16-1.22l-7.2-.86a2.02 2.01-72.5 0 0-2.01 1.05q-3.64 6.83-6.62 12.12-.86 1.53-.71 2.42a1.49 1.49 0 0 0 2.53.81q5.95-5.96 12.34-.5a2.81 2.77 7.2 0 1 .67.85c.83 1.66 1.25 3.12 2.88 3.01a1.12 1.11-6.2 0 0 1.03-1.27q-1.07-7.29-1.75-16.41M75.49 115.6l1.58-4.57a.5.5 0 0 0-.3-.63l-.14-.04a2.3 2.23-71 0 0-2.85 1.45l-.4 1.15a2.3 2.23-71 0 0 1.36 2.9l.13.05a.5.5 0 0 0 .62-.31m5.18-1.7q-.01.65-.52 2.47a.87.86-72.4 0 0 .53 1.04q.75.29 1.74 0a1.31 1.28-34.1 0 1 1.16.21q.81.63 1 .75a1.52 1.46-76.8 0 0 2.26-1.47q-.14-1.46 1.16-1.82a1.01.97 50.4 0 0 .14-1.83q-1.57-.84-3.17-.54a1.28 1.26-32 0 1-.98-.22q-.87-.64-2.43-.5c-.97.09-1.58-.7-2.4-.96a.8.8 0 0 0-.96.46l-1.56 3.85a1.01 1.01 0 0 0 1.81.89l1.47-2.55a.41.41 61.1 0 1 .75.22m38.09 7.65q-2.03 3.17-1.27 6.48c.86 3.74 3.47 5.49 7.31 4.36a1.18 1.17-21.6 0 0 .72-1.66l-1.55-3.08a1.47 1.44-55.8 0 1-.15-.83l.66-5.9q1.5-2.52 4.25-3.39a.67.67 0 0 0 .11-1.24q-3.04-1.59-5.67-1.07-1.63.33-2.83 2.62-.92 1.74-1.58 3.71m-6.36-2.38a.85.85 0 0 0-.6-1.04l-.13-.04a.85.85 0 0 0-1.05.6l-1.02 3.7a.85.85 0 0 0 .6 1.04l.13.04a.85.85 0 0 0 1.05-.6zm3.66-.21-1.89-.32a.45.45 0 0 0-.52.37l-.19 1.08a3.77 1.32-80.4 0 0 .68 3.94l.18.03a3.77 1.32-80.4 0 0 1.93-3.5l.18-1.08a.45.45 0 0 0-.37-.52m12.74 6.81q1.19-1.71 1.37-3.47a.85.85 0 0 0-1.51-.61q-1.62 2.08-.89 5.44a.38.38 0 0 0 .64.19q.11-.12.19-1.02a1.13 1.11-24.8 0 1 .2-.53m3.51.74q1.09-1.74.93-3.35a.82.82 0 0 0-1.45-.45q-1.67 2.01-.29 4.81a.33.33 0 0 0 .62-.14l.01-.23a1.24 1.18 62.1 0 1 .18-.64m2.96-3.13a2.65.84-91.8 0 0-.76 2.68 2.65.84-91.8 0 0 .92 2.62 2.65.84-91.8 0 0 .76-2.68 2.65.84-91.8 0 0-.92-2.62m24.1 5.2-1.53-.21a.15.15 0 0 0-.17.13l-.02.18a3.49.84-82.3 0 0 .36 3.57l.16.02a3.49.84-82.3 0 0 1.3-3.34l.03-.18a.15.15 0 0 0-.13-.17m3.64 1.01-1.46-.56a.3.3 0 0 0-.37.16l-.09.23a3.87.86-68.7 0 0-.6 3.91l.39.16a3.87.86-68.7 0 0 2.2-3.3l.09-.22a.3.3 0 0 0-.16-.38m3.56 1.03a1.44.89-17.2 0 0-1.64-.42 1.44.89-17.2 0 0-1.12 1.28 1.44.89-17.2 0 0 1.64.42 1.44.89-17.2 0 0 1.12-1.28m2.63-.18a1.34 1.15-81.5 0 0-1.34 1.16 1.34 1.15-81.5 0 0 .94 1.5 1.34 1.15-81.5 0 0 1.34-1.16 1.34 1.15-81.5 0 0-.94-1.5m-.02 113.32q-6.28 1.64-9.18 1.97-3.01.33-6.62-.69-1.57-.68-2.28-1.37a1.18 1.18 0 0 0-2 .99q1.79 13.3 2.86 26.35.2 2.5 2.58 3.3 2.55 1.63 6.21 1.33 5.47-.46 8.71-1.49 4.57-.31 5.57-3.53a1.54 1.32-40.5 0 0 .07-.44q.14-8.79.08-19.93-.02-4.8-1.49-9.14a.98.98 0 0 0-1.64-.36zm-2.99 33.29-5.41.84a.8.8 0 0 0-.69.94l.51 3.28a9.9 2.19 81.2 0 0 3.68 9.45l2.71-.42a9.9 2.19 81.2 0 0 .65-10.12l-.51-3.28a.8.8 0 0 0-.94-.69"/><path fill="#0a7fdb" d="M147.14 12.4q-1.08 11.9-3.95 23.93l-9.47-1.96 3.38-21.6a.5.5 0 0 0-.3-.56q-.5-.24-1.25.08.3-.44.89-.59 4.5-1.15 10.7.7"/><path fill="#63b9ea" d="M135.55 12.29q.75-.32 1.25-.08a.5.5 0 0 1 .3.56l-3.38 21.6q-1.11.65-1.83.53a.64.63-80.6 0 1-.51-.72l3.22-20.95q.1-.67.95-.94"/><path fill="#134b78" d="M143.19 36.33q2.87-12.03 3.95-23.93.74 0 2.86 1.07 1.75.87 2.07 2.31a1.53 1.39 46.7 0 1 .01.61l-4.19 20.88a1.12 1.12 0 0 1-1.64.76z"/><path fill="#0a7fdb" d="M141.6 37.68q-1.5 3.33-1.6 6.62l-7.31-1.02q1.95-3 1.66-7.13 3.62-.33 7.25 1.53"/><path fill="#63b9ea" d="M134.35 36.15q.29 4.13-1.66 7.13-.71-2.11-.29-5.35.24-1.82 1.95-1.78"/><path fill="#134b78" d="M140 44.3q.1-3.29 1.6-6.62 1.52.13 2.5 1.17a1.23 1.21 27.5 0 1 .32.98l-.51 4.3a.8.8 0 0 1-.57.69q-1.53.51-3.34-.52"/><path fill="#63b9ea" d="m143.7 50.09 3.69 3.32q-.69 1.71-3.19-.51a1.9 1.89-12.7 0 0-.59-.37l-5.93-2.4a2.72 2.65 58.3 0 0-.68-.17q-9.91-1.18-16.34 2.24-12.28 6.55-13.6 20.16-.1 1.02.12 4.79.14 2.43-.29 4.83c-8.97-22.78 15.89-43.2 36.81-31.89"/><path fill="#0a7fdb" d="M147.39 53.41q3.64 4.33 5.56 9.88a4.06 3.54 36.7 0 1 .21.97c.48 5.68-.8 9.84-2.2 14.92-1.34 4.84-4.43 7.67-8.27 11.41a3.71 3.4 5.9 0 1-.74.55q-10.8 6.18-24.53 2.26-7.3-3.53-10.53-11.42.43-2.4.29-4.83-.22-3.77-.12-4.79 1.32-13.61 13.6-20.16 6.43-3.42 16.34-2.24a2.72 2.65 58.3 0 1 .68.17l5.93 2.4a1.9 1.89-12.7 0 1 .59.37q2.5 2.22 3.19.51m-25.84 10.8a9.51 9.07-135.7 0 0 .48 13.14 9.51 9.07-135.7 0 0 13.14.15 9.51 9.07-135.7 0 0-.48-13.13 9.51 9.07-135.7 0 0-13.14-.15"/><path fill="#134b78" d="M117.42 93.4q13.73 3.92 24.53-2.26a3.71 3.4 5.9 0 0 .74-.55c3.84-3.74 6.93-6.57 8.27-11.41 1.4-5.08 2.68-9.24 2.2-14.92a4.06 3.54 36.7 0 0-.21-.97q-1.92-5.55-5.56-9.88l-3.69-3.32 5.44 1.93a2.55 2.17 68.1 0 1 .59.31c9.29 6.71 11.24 16.86 8.76 27.7-1.51 6.62-5.05 10.32-11.03 13.47a.31.31 0 0 1-.42-.43l.44-.82a.51.49-6.8 0 1 .14-.17q2.69-2.22 4.15-5.35a.4.4 0 0 0-.66-.44l-5.26 5.86a2.85 2.75-83.9 0 1-.61.51q-6.71 4.31-13.49 4.74-7.25.46-14.33-4"/><path fill="#06111a" d="M121.55 64.22a9.51 9.07-135.7 0 1 13.14.15 9.51 9.07-135.7 0 1 .48 13.13 9.51 9.07-135.7 0 1-13.14-.15 9.51 9.07-135.7 0 1-.48-13.13m13.37 6.23a7.05 7.05 0 0 0-7.05-7.05 7.05 7.05 0 0 0-7.05 7.05 7.05 7.05 0 0 0 7.05 7.05 7.05 7.05 0 0 0 7.05-7.05"/><circle fill="#0a7fdb" cx="127.87" cy="70.45" r="7.05"/><path fill="#63b9ea" d="M107.26 88.47q-.42 1.78-.88 2.61-10.57 19.13-19.92 37.24c-4.59 8.87-9.04 16.67-13.35 25.38q-3.54 7.15-9.94 19.05-13.37 24.81-24.87 48.94-2.13 4.46-3.05 7.84-.68 2.48-1.91 8.23-2.09 9.72-2.37 16.01l-3 6.73a.31.31 0 0 1-.59-.19q3.09-16.16 5.9-32.03.47-2.66 2.41-6.58c4.33-8.71 10.16-18.91 14.57-27.39q28.83-55.45 51.02-96.98c1.79-3.35 3.04-6.49 4.75-9.64a.5.5-74 0 1 .42-.24q.74.02.81 1.02"/><path fill="#0a7fdb" d="M107.49 88.58q.35 1.86 1.37 3.27l3.9 5.37q.83 1.14 1.6 4.29-35.35 64.32-69.93 129.18-5.3 9.94-13.46 23.08.28-6.29 2.37-16.01 1.23-5.75 1.91-8.23.92-3.38 3.05-7.84 11.5-24.13 24.87-48.94 6.4-11.9 9.94-19.05c4.31-8.71 8.76-16.51 13.35-25.38q9.35-18.11 19.92-37.24.46-.83.88-2.61.3.4.23.11"/><path fill="#134b78" d="M114.36 101.51q-.77-3.15-1.6-4.29l-3.9-5.37q-1.02-1.41-1.37-3.27l3.63 3.84a.63.57 81.4 0 0 .16.13l5.56 3.61a.54.53 31.5 0 1 .18.72zm51.03 139.93q-.8-6.27-1.37-12.8-.69-7.84-1.31-12.8-3.54-28.43-7.01-53.58-4.69-33.96-8.03-61.76a.64.64 0 0 0-1.02-.44q-4.09 3.02-9.41 4.61l-.52.74q-1.28-2.17-.88-4.1a1.2 1.2 0 0 1 .81-.9q4.33-1.41 9.83-3.6c1.91-.76 3.28-2.57 5.04-2.48a.6.6 0 0 1 .55.54l.48 8.9a1.04.92 41.4 0 0 .03.24q1.56 6.32 1.81 10.24.39 5.99 1.07 9.73a2.95 2.79 46.6 0 1 0 1.01c-.76 4.02-1.83 8.52 1.03 11.53a3.27 3.26 18.8 0 1 .85 1.72c1.27 8.05 1.51 15.35 2.65 22.57q1.16 7.33 2.25 17.58.3 2.84.94 6.68.95 5.67.91 6.79-.09 2.69.51 4.39.72 2.05.93 4.22.66 6.78 1.43 11.06 1.25 6.89 1.54 11.03.4 5.62 1.9 14.72c.33 2.04-.26 3.15-2.01 4.12q-.9.5-3 .04M29.18 263.66q.74-3.65 2.27-6.43 23.77-43.25 24.24-44.19 1.91-3.85 2.56-5 6.5-11.29 17.98-33.52 1.91-3.7 12.35-22.22a2.45 2.41-27.2 0 0 .28-.85q.06-.47.16-.63 10.03-16.87 19.37-35.44.27-.53 1.1-1.6l.08-.12 8.01-14.92a2 2 0 0 1 1.99-1.04l1.05.13a.68.68 0 0 1 .48 1.06l-1.48 2.14a1.45 1.06 81.2 0 0-.15.29q-3.09 7.52-7.13 13.55a1.73 1.72 3.4 0 1-.69.61q-5.61 2.73-4.07 8.67a1.65 1.6-37.6 0 1-.18 1.24c-5.08 8.55-9.02 15.02-13.41 23.47-4.66 8.97-9.6 16.93-14.38 26.02q-.93 1.78-6.51 11.69-12.94 23.01-34.96 63.3c-1.3 2.38-2.12 5.28-4.16 7.14a1.39 1.36 73.3 0 0-.43.82q-.1.67-.29.9-1.59 1.95-2.19 3.64-.2.56-1.53 1.52a.23.23 0 0 1-.36-.23"/><path fill="#0a7fdb" d="M165.39 241.44q-5.16 3.51-11.39.94.78.01.65-.96-3.79-28.42-3.91-29.41-4.8-38.38-9.27-76.8-.34-2.91-3.21-29.61-.1-1-1.02-.93 5.32-1.59 9.41-4.61a.64.64 0 0 1 1.02.44q3.34 27.8 8.03 61.76 3.47 25.15 7.01 53.58.62 4.96 1.31 12.8.57 6.53 1.37 12.8"/><path fill="#63b9ea" d="M137.24 104.67q.92-.07 1.02.93 2.87 26.7 3.21 29.61 4.47 38.42 9.27 76.8.12.99 3.91 29.41.13.97-.65.96-1.06-.06-1.17-1-8.13-67.65-16.32-135.3-.04-.29.21-.67z"/><path fill="#494b50" d="M75.49 115.6a.5.5 0 0 1-.62.31l-.13-.05a2.3 2.23-71 0 1-1.36-2.9l.4-1.15a2.3 2.23-71 0 1 2.85-1.45l.14.04a.5.5 0 0 1 .3.63zm5.18-1.7a.41.41 61.1 0 0-.75-.22l-1.47 2.55a1.01 1.01 0 0 1-1.81-.89l1.56-3.85a.8.8 0 0 1 .96-.46c.82.26 1.43 1.05 2.4.96q1.56-.14 2.43.5a1.28 1.26-32 0 0 .98.22q1.6-.3 3.17.54a1.01.97 50.4 0 1-.14 1.83q-1.3.36-1.16 1.82a1.52 1.46-76.8 0 1-2.26 1.47q-.19-.12-1-.75a1.31 1.28-34.1 0 0-1.16-.21q-.99.29-1.74 0a.87.86-72.4 0 1-.53-1.04q.51-1.82.52-2.47"/><rect fill="#494b50" x="-.92" y="-2.77" transform="translate(111.00,120.78) rotate(15.4)" width="1.84" height="5.54" rx=".85"/><path fill="#494b50" d="M116.06 118.96a.45.45 0 0 1 .37.52l-.18 1.08a3.77 1.32-80.4 0 1-1.93 3.5l-.18-.03a3.77 1.32-80.4 0 1-.68-3.94l.19-1.08a.45.45 0 0 1 .52-.37zm8.42 1.96-.66 5.9a1.47 1.44-55.8 0 0 .15.83l1.55 3.08a1.18 1.17-21.6 0 1-.72 1.66c-3.84 1.13-6.45-.62-7.31-4.36q-.76-3.31 1.27-6.48 2.64.34 5.72-.63m4.12 5.38q-.08.9-.19 1.02a.38.38 0 0 1-.64-.19q-.73-3.36.89-5.44a.85.85 0 0 1 1.51.61q-.18 1.76-1.37 3.47a1.13 1.11-24.8 0 0-.2.53m3.53.85-.01.23a.33.33 0 0 1-.62.14q-1.38-2.8.29-4.81a.82.82 0 0 1 1.45.45q.16 1.61-.93 3.35a1.24 1.18 62.1 0 0-.18.64"/><ellipse fill="#494b50" cx="0" cy="0" transform="translate(135.35,126.03) rotate(-91.8)" rx="2.65" ry=".84"/><path fill="#494b50" d="M159.37 128.58a.15.15 0 0 1 .13.17l-.03.18a3.49.84-82.3 0 1-1.3 3.34l-.16-.02a3.49.84-82.3 0 1-.36-3.57l.02-.18a.15.15 0 0 1 .17-.13z"/><path fill="#494b50" d="M163.01 129.59a.3.3 0 0 1 .16.38l-.09.22a3.87.86-68.7 0 1-2.2 3.3l-.39-.16a3.87.86-68.7 0 1 .6-3.91l.09-.23a.3.3 0 0 1 .37-.16z"/><ellipse fill="#494b50" cx="0" cy="0" transform="translate(165.19,131.05) rotate(-17.2)" rx="1.44" ry=".89"/><ellipse fill="#494b50" cx="0" cy="0" transform="translate(169.00,131.77) rotate(-81.5)" rx="1.34" ry="1.15"/><path fill="#134b78" d="m169.46 274.15-.55-25.36a1.03 1.02 24.9 0 0-.25-.67q-.83-.94.12-1.98a1.31 1.29-22.8 0 0 .34-.82l.06-1.56 2.87-3.01a.98.98 0 0 1 1.64.36q1.47 4.34 1.49 9.14.06 11.14-.08 19.93a1.54 1.32-40.5 0 1-.07.44q-1 3.22-5.57 3.53"/><path fill="#63b9ea" d="M153.38 245.04q-1.64 1.53-1.54 2.73 1.04 11.76 4.06 25.98a.51.5-10.2 0 1-.42.6q-.45.08-.94-.04-2.38-.8-2.58-3.3-1.07-13.05-2.86-26.35a1.18 1.18 0 0 1 2-.99q.71.69 2.28 1.37"/><path fill="#0a7fdb" d="m169.18 243.76-.06 1.56a1.31 1.29-22.8 0 1-.34.82q-.95 1.04-.12 1.98a1.03 1.02 24.9 0 1 .25.67l.55 25.36q-3.24 1.03-8.71 1.49-3.66.3-6.21-1.33.49.12.94.04a.51.5-10.2 0 0 .42-.6q-3.02-14.22-4.06-25.98-.1-1.2 1.54-2.73 3.61 1.02 6.62.69 2.9-.33 9.18-1.97"/><path fill="#494b50" d="M166.19 277.05a.8.8 0 0 1 .94.69l.51 3.28a9.9 2.19 81.2 0 1-.65 10.12l-2.71.42a9.9 2.19 81.2 0 1-3.68-9.45l-.51-3.28a.8.8 0 0 1 .69-.94z"/></svg>